<svg xmlns="http://www.w3.org/2000/svg" xmlns:xlink="http://www.w3.org/1999/xlink" width="512" zoomAndPan="magnify" viewBox="0 0 384 383.999986" height="512" preserveAspectRatio="xMidYMid meet" version="1.0"><defs><clipPath id="e3a8a1125e"><path d="M 62 221 L 143 221 L 143 293 L 62 293 Z M 62 221 " clip-rule="nonzero"/></clipPath><clipPath id="1f8b77c609"><path d="M 81.363281 207.378906 L 155.546875 246.347656 L 124.273438 305.878906 L 50.09375 266.910156 Z M 81.363281 207.378906 " clip-rule="nonzero"/></clipPath><clipPath id="ed44539f60"><path d="M 118.398438 226.832031 C 97.945312 216.089844 74.363281 220.703125 65.730469 237.144531 C 57.09375 253.582031 66.671875 275.621094 87.128906 286.363281 C 107.582031 297.109375 131.164062 292.492188 139.800781 276.054688 C 148.433594 259.613281 138.855469 237.578125 118.398438 226.832031 Z M 118.398438 226.832031 " clip-rule="nonzero"/></clipPath><clipPath id="c694909b3c"><path d="M 197 107 L 306 107 L 306 173 L 197 173 Z M 197 107 " clip-rule="nonzero"/></clipPath><clipPath id="be44c41a4c"><path d="M 204.207031 98.78125 L 311.164062 119.949219 L 298.957031 181.621094 L 192 160.449219 Z M 204.207031 98.78125 " clip-rule="nonzero"/></clipPath><clipPath id="44e5439028"><path d="M 257.59375 109.347656 C 228.109375 103.511719 201.472656 112.585938 198.101562 129.613281 C 194.730469 146.644531 215.902344 165.179688 245.390625 171.015625 C 274.875 176.851562 301.511719 167.78125 304.882812 150.75 C 308.253906 133.722656 287.082031 115.183594 257.59375 109.347656 Z M 257.59375 109.347656 " clip-rule="nonzero"/></clipPath><clipPath id="57203d0c42"><path d="M 67 270 L 280 270 L 280 331.34375 L 67 331.34375 Z M 67 270 " clip-rule="nonzero"/></clipPath><clipPath id="b7953bfa89"><path d="M 294 183 L 383.789062 183 L 383.789062 211 L 294 211 Z M 294 183 " clip-rule="nonzero"/></clipPath></defs><g clip-path="url(#e3a8a1125e)"><g clip-path="url(#1f8b77c609)"><g clip-path="url(#ed44539f60)"><path fill="#f0ab0f" d="M 81.363281 207.378906 L 155.546875 246.347656 L 124.273438 305.878906 L 50.09375 266.910156 Z M 81.363281 207.378906 " fill-opacity="1" fill-rule="nonzero"/></g></g></g><g clip-path="url(#c694909b3c)"><g clip-path="url(#be44c41a4c)"><g clip-path="url(#44e5439028)"><path fill="#f0ab0f" d="M 204.207031 98.78125 L 310.921875 119.902344 L 298.714844 181.570312 L 192 160.449219 Z M 204.207031 98.78125 " fill-opacity="1" fill-rule="nonzero"/></g></g></g><path fill="#563008" d="M 248.796875 84.304688 C 245.445312 88.421875 241.859375 92.414062 238.773438 96.691406 C 234.726562 102.316406 231.371094 108.367188 227.113281 113.851562 C 224.113281 117.703125 220.335938 121.160156 216.449219 124.285156 C 212.511719 127.460938 207.824219 127.78125 203.390625 124.816406 C 199.414062 122.15625 195.121094 121.039062 190.152344 120.949219 C 186.832031 120.878906 183.585938 119.40625 180.230469 118.835938 C 170.367188 117.167969 160.535156 116.621094 150.617188 118.910156 C 147.136719 119.707031 143.289062 119.8125 139.703125 119.421875 C 137.664062 119.210938 135.125 117.789062 134.023438 116.210938 C 126.964844 106.113281 117.148438 97.792969 111.523438 86.773438 C 110.671875 85.105469 109.09375 83.757812 107.78125 82.175781 C 103.644531 82.921875 103.132812 86.011719 101.640625 88.441406 C 97.277344 95.519531 92.769531 102.511719 88.28125 109.503906 C 87.355469 110.957031 86.292969 112.324219 85.28125 113.726562 C 80.949219 119.6875 76.78125 125.757812 72.21875 131.578125 C 70.730469 133.476562 68.40625 134.859375 66.292969 136.28125 C 63.96875 137.84375 61.503906 139.5625 58.503906 137.308594 C 55.503906 135.054688 54.351562 132.144531 56.109375 128.953125 C 59.285156 123.167969 61.714844 116.546875 66.472656 112.09375 C 72.753906 106.203125 76.214844 98.980469 80.738281 92.328125 C 85.671875 85.035156 89.148438 76.90625 93.054688 69.046875 C 94.347656 66.4375 94.953125 63.546875 95.875 60.777344 C 97.914062 54.601562 104.710938 52.773438 109.964844 57.066406 C 110.726562 57.707031 111.4375 58.488281 111.914062 59.320312 C 116.316406 66.933594 120.59375 74.617188 125.082031 82.210938 C 126.660156 84.890625 128.507812 87.5 130.582031 89.878906 C 132.871094 92.503906 135.996094 94.5625 137.980469 97.332031 C 140.378906 100.667969 143.464844 101.09375 147.386719 101.234375 C 160.75 101.765625 174.109375 102.53125 187.4375 103.488281 C 190.773438 103.71875 194.054688 104.871094 197.300781 105.8125 C 205.324219 108.171875 209.671875 106.894531 213.929688 100.382812 C 221.222656 89.222656 228.410156 78.042969 238.59375 68.746094 C 241.113281 66.4375 242.25 62.925781 244.289062 60.121094 C 248.476562 54.316406 253.464844 53.785156 258.308594 59.109375 C 260.542969 61.574219 261.875 64.929688 262.851562 68.085938 C 266.738281 80.5625 270.179688 93.160156 274.046875 105.636719 C 275.699219 110.941406 278.039062 116.070312 279.921875 121.320312 C 280.5625 123.132812 281.179688 125.082031 281.074219 126.945312 C 280.84375 131.117188 277.332031 133.246094 272.894531 132.304688 C 268.761719 131.4375 265.621094 129.394531 264.359375 125.582031 C 261.058594 115.464844 257.917969 105.316406 254.636719 95.203125 C 253.480469 91.636719 252.117188 88.140625 250.855469 84.609375 C 250.144531 84.5 249.472656 84.414062 248.796875 84.304688 Z M 248.796875 84.304688 " fill-opacity="1" fill-rule="nonzero"/><g clip-path="url(#57203d0c42)"><path fill="#563008" d="M 198.226562 330.160156 C 193.558594 330.496094 188.875 330.851562 184.1875 331.132812 C 182.894531 331.207031 181.527344 331.222656 180.269531 330.9375 C 168.875 328.257812 157.519531 325.457031 146.128906 322.8125 C 140.804688 321.570312 135.195312 321.144531 130.121094 319.386719 C 120.097656 315.910156 110.246094 311.917969 100.523438 307.765625 C 97.011719 306.273438 93.832031 303.96875 90.835938 301.644531 C 85.015625 297.136719 79.28125 292.523438 73.851562 287.640625 C 71.671875 285.671875 70.144531 282.976562 68.761719 280.402344 C 67.003906 277.121094 67.925781 272.753906 70.285156 271.035156 C 72.628906 269.3125 76.90625 269.84375 80.4375 272.398438 C 81.679688 273.285156 82.886719 274.261719 83.878906 275.378906 C 92.164062 284.804688 102.527344 291.597656 114.933594 295.574219 C 125.808594 299.050781 136.863281 302.085938 147.832031 305.386719 C 162.382812 309.789062 177.730469 310.019531 192.671875 312.234375 C 198.597656 313.105469 205.339844 311.738281 211.195312 309.984375 C 224.894531 305.882812 238.363281 301.109375 251.742188 296.214844 C 255.292969 294.917969 258.273438 292.21875 261.394531 290.039062 C 267.039062 286.097656 269.929688 286.222656 275.058594 290.820312 C 279.921875 295.183594 281.039062 300.949219 277.136719 305.050781 C 273.515625 308.863281 269.238281 312.078125 263.347656 312.769531 C 261.324219 313.015625 259.195312 313.441406 257.386719 314.277344 C 251.121094 317.152344 245.160156 320.648438 238.738281 323.148438 C 225.890625 328.136719 212.296875 330.53125 198.226562 330.160156 Z M 198.226562 330.160156 " fill-opacity="1" fill-rule="nonzero"/></g><path fill="#563008" d="M 179.574219 266.152344 C 175.972656 267.414062 172.585938 268.601562 169.195312 269.792969 C 164.191406 271.546875 159.398438 271.371094 154.964844 268.390625 C 151.984375 266.402344 150.511719 262.375 151.449219 259.429688 C 152.460938 256.25 155.285156 255.949219 158.246094 255.488281 C 161.03125 255.0625 164.101562 254.671875 166.425781 253.34375 C 172.585938 249.828125 172.816406 243.492188 167.597656 239.003906 C 165.148438 236.890625 162.71875 234.566406 161.066406 231.941406 C 158.351562 227.648438 159.203125 224.363281 163.003906 220.867188 C 168.183594 216.113281 179.878906 214.996094 185.839844 218.703125 C 191.164062 222.023438 193.042969 227.894531 189.9375 233.34375 C 186.285156 239.730469 185.980469 246.316406 188.023438 252.988281 C 189.691406 258.417969 192.777344 259.640625 198.738281 258.113281 C 205.375 256.410156 208.125 257.421875 209.9375 262.285156 C 212.242188 268.460938 210.964844 271.726562 205.109375 274.175781 C 197.921875 277.191406 191.234375 276.109375 185.199219 271.652344 C 183.390625 270.324219 181.972656 268.53125 179.574219 266.152344 Z M 179.574219 266.152344 " fill-opacity="1" fill-rule="nonzero"/><path fill="#563008" d="M 77.757812 202.734375 C 70.320312 201.277344 62.90625 199.824219 55.46875 198.386719 C 40.085938 195.40625 24.699219 192.40625 9.296875 189.445312 C 3.511719 188.34375 0.976562 184.792969 0.425781 179.738281 C -0.0546875 175.355469 1.933594 173.261719 6.691406 173.5625 C 9.796875 173.757812 12.863281 174.574219 15.953125 175.105469 C 34.53125 178.28125 53.144531 181.335938 71.6875 184.707031 C 77.578125 185.769531 83.453125 187.171875 86.078125 193.417969 C 88.5625 199.328125 86.964844 202.253906 80.207031 202.539062 C 79.425781 202.574219 78.625 202.449219 77.847656 202.398438 C 77.808594 202.503906 77.792969 202.628906 77.757812 202.734375 Z M 77.757812 202.734375 " fill-opacity="1" fill-rule="nonzero"/><g clip-path="url(#b7953bfa89)"><path fill="#563008" d="M 306.113281 210.007812 C 304.019531 210.007812 301.746094 210.472656 299.867188 209.886719 C 297.84375 209.246094 295.128906 207.898438 294.667969 206.371094 C 294.222656 204.953125 295.855469 202.183594 297.453125 201.207031 C 300.453125 199.378906 303.949219 197.90625 307.445312 197.179688 C 321.976562 194.214844 336.617188 191.644531 351.183594 188.804688 C 358.351562 187.421875 365.488281 185.839844 372.601562 184.246094 C 376.273438 183.410156 379.257812 184.066406 381.742188 186.816406 C 383.886719 189.210938 383.78125 191.785156 382.34375 194.214844 C 381.546875 195.546875 380.035156 196.84375 378.511719 197.429688 C 375.636719 198.527344 372.546875 199.328125 369.480469 199.878906 C 355.089844 202.433594 340.679688 204.917969 326.253906 207.328125 C 319.597656 208.449219 312.890625 209.386719 306.21875 210.417969 C 306.183594 210.292969 306.148438 210.152344 306.113281 210.007812 Z M 306.113281 210.007812 " fill-opacity="1" fill-rule="nonzero"/></g><path fill="#563008" d="M 306.007812 224.632812 C 321.265625 226.566406 336.542969 228.394531 351.769531 230.523438 C 355.335938 231.019531 358.796875 232.402344 362.167969 233.679688 C 366.214844 235.207031 369.265625 243.101562 367.472656 246.777344 C 366.144531 249.527344 362.59375 250.894531 358.726562 249.472656 C 346.394531 244.914062 333.386719 244.042969 320.363281 242.75 C 314.789062 242.199219 309.414062 239.800781 303.984375 238.171875 C 303.007812 237.886719 302.050781 237.355469 301.285156 236.734375 C 298.890625 234.78125 296.53125 232.652344 297.738281 229.351562 C 299.03125 225.800781 302.171875 224.863281 306.007812 224.632812 Z M 306.007812 224.632812 " fill-opacity="1" fill-rule="nonzero"/><path fill="#563008" d="M 78.945312 218.332031 C 80.71875 219.128906 83.984375 220.105469 86.558594 221.917969 C 89.46875 223.957031 92.007812 226.902344 90.90625 230.574219 C 89.839844 234.105469 86.0625 234.445312 82.65625 235.066406 C 67.765625 237.726562 52.914062 240.546875 38.007812 243.136719 C 35.523438 243.566406 32.757812 243.476562 30.308594 242.90625 C 26.457031 242.003906 23.796875 238.292969 23.761719 234.78125 C 23.722656 231.355469 25.535156 229.28125 30.589844 228.164062 C 45.105469 224.96875 59.675781 222.003906 74.226562 218.96875 C 75.253906 218.757812 76.300781 218.6875 78.945312 218.332031 Z M 78.945312 218.332031 " fill-opacity="1" fill-rule="nonzero"/><path fill="#563008" d="M 247.003906 188.449219 C 246.863281 189.886719 246.847656 191.34375 246.578125 192.742188 C 245.160156 200.5 238.578125 204.882812 230.46875 203.515625 C 220.121094 201.777344 215.171875 196.078125 215.96875 187.917969 C 216.539062 182.042969 220.511719 178.386719 224.539062 174.660156 C 225.695312 173.597656 227.769531 173.011719 229.492188 172.835938 C 237.992188 171.964844 247.539062 180.589844 247.003906 188.449219 Z M 247.003906 188.449219 " fill-opacity="1" fill-rule="nonzero"/><path fill="#563008" d="M 159.328125 179.222656 C 159.007812 187.722656 151.734375 195.226562 144.226562 194.800781 C 135.019531 194.269531 128.203125 188.183594 128.542969 180.765625 C 128.933594 172.496094 135.304688 167.210938 144.460938 167.582031 C 153.632812 167.972656 159.578125 172.621094 159.328125 179.222656 Z M 159.328125 179.222656 " fill-opacity="1" fill-rule="nonzero"/></svg>